<svg width="64" height="64" viewBox="0 0 64 64" fill="none" xmlns="http://www.w3.org/2000/svg">
<path d="M14.8889 54H49.1111C51.8 54 54 51.8 54 49.1111V22.2223C54 21.5623 53.7311 20.9511 53.2911 20.4867L43.5133 10.7089C43.2849 10.4824 43.014 10.3031 42.7162 10.1815C42.4184 10.0598 42.0995 9.99818 41.7778 10H14.8889C12.2 10 10 12.2 10 14.8889V49.1111C10 51.8 12.2 54 14.8889 54ZM39.3333 49.1111H24.6667V36.8889H39.3333V49.1111ZM29.5556 14.8889H34.4444V19.7778H29.5556V14.8889ZM14.8889 14.8889H19.7778V24.6667H39.3333V14.8889H40.7756L49.1111 23.2245V49.1111H44.2222V36.8889C44.2222 34.2 42.0222 32 39.3333 32H24.6667C21.9778 32 19.7778 34.2 19.7778 36.8889V49.1111H14.8889V14.8889Z" fill="white"/>
</svg>
