<svg width="64" height="64" viewBox="0 0 64 64" fill="none" xmlns="http://www.w3.org/2000/svg">
<path d="M51.2 10H12.8C10.1528 10 8 12.1927 8 14.8889V49.1111C8 51.8073 10.1528 54 12.8 54H51.2C53.8472 54 56 51.8073 56 49.1111V14.8889C56 12.1927 53.8472 10 51.2 10ZM51.2024 24.6667C51.1992 24.6667 51.1992 24.6667 51.2024 24.6667H50.0864L43.6856 14.8889H51.2L51.2024 24.6667ZM40.4 39.3333L27.2 46.6667V32L40.4 39.3333ZM38.0864 24.6667L31.6856 14.8889H37.916L44.3168 24.6667H38.0864ZM32.3168 24.6667H26.0864L19.6856 14.8889H25.916L32.3168 24.6667ZM12.8 14.8889H13.916L20.3168 24.6667H12.8V14.8889Z" fill="white"/>
</svg>
